<svg xmlns="http://www.w3.org/2000/svg" viewBox="0 0 1502 1034.6"><defs><style>.cls-1,.cls-3{fill:#034c8c;}.cls-2{fill:#d91818;}.cls-2,.cls-3{fill-rule:evenodd;}</style></defs><g id="Camada_2" data-name="Camada 2"><g id="Camada_1-2" data-name="Camada 1"><path class="cls-1" d="M328.75,873.15H299.93V956.6c0,12.73-6.29,17.79-14.57,17.79-7.37,0-16.42-8.59-16.42-8.59l-9.2,24.08s11.5,12.11,29.61,12.11c25.3,0,39.4-13.19,39.4-38Z"/><path class="cls-1" d="M504.24,873.15H475.42v73.17c0,21.17-6.44,27.31-20.56,27.31s-20.57-6.14-20.57-27.31V873.15H405.47v81.61c0,31.28,17.17,47.23,49.39,47.23s49.38-16,49.38-47.23Z"/><path class="cls-1" d="M626.05,870.85c-20.4,0-41.25,15-41.25,38.64,0,13.19,8.89,25,24.07,32.53s28.55,11.66,28.55,20.86c0,11.82-12,12.43-18.27,12.43-14.12,0-31-14.27-31-14.27l-14.42,24.24s18,16.71,47.55,16.71c24.7,0,47.7-10.58,47.7-40.79,0-16.57-15.49-28.54-29.59-34.53C625,920.54,613,915.47,613,908.41c0-6.9,5.21-11.35,15-11.35,13,0,25.62,8.74,25.62,8.74l11.65-23A71.84,71.84,0,0,0,626.05,870.85Z"/><polygon class="cls-1" points="728.54 898.44 758.6 898.44 758.6 999.68 787.42 999.68 787.42 898.44 817.49 898.44 817.49 873.15 728.54 873.15 728.54 898.44"/><rect class="cls-1" x="889.3" y="873.14" width="28.82" height="126.54"/><path class="cls-1" d="M1060.33,973.63c-29,0-41.73-20.26-41.73-37.29s12.73-37.13,41.73-37.13a44,44,0,0,1,24.85,7.82l12.27-24.53s-14.11-11.65-41.57-11.65c-35.9,0-68.55,29.43-68.55,65.8,0,36.21,32.8,65.34,68.55,65.34,27.46,0,41.57-11.65,41.57-11.65l-12.27-24.54A43.94,43.94,0,0,1,1060.33,973.63Z"/><polygon class="cls-1" points="1242.26 873.15 1169.87 873.15 1169.87 999.68 1242.26 999.68 1242.26 974.39 1198.69 974.39 1198.69 948.91 1240.42 948.91 1240.42 923.62 1198.69 923.62 1198.69 898.44 1242.26 898.44 1242.26 873.15"/><polygon class="cls-2" points="127.28 877.82 139.85 916.51 180.53 916.51 147.62 940.42 160.19 979.11 127.28 955.2 94.36 979.11 106.94 940.42 74.02 916.51 114.71 916.51 127.28 877.82"/><polygon class="cls-2" points="1374.72 885.77 1387.29 924.46 1427.98 924.46 1395.06 948.37 1407.64 987.06 1374.72 963.15 1341.81 987.06 1354.38 948.37 1321.47 924.46 1362.15 924.46 1374.72 885.77"/><polygon class="cls-2" points="750.43 0 763 38.69 803.68 38.69 770.77 62.6 783.34 101.29 750.43 77.38 717.52 101.29 730.09 62.6 697.17 38.69 737.86 38.69 750.43 0"/><path class="cls-3" d="M1004.07,399.47l15.63,8.6L990.77,460.7l15,8.23,28.93-52.63,15.63,8.6,7.23-13.15-46.24-25.42ZM436.91,489.33c-13.57,10.58-26.91,5.74-33.12-2.23s-7.58-22,6-32.59a26.08,26.08,0,0,1,14.49-5.4l-3.21-15.95s-10.85-.31-23.7,9.7c-16.8,13.09-21.34,38.77-8.08,55.79s39.17,18.61,55.9,5.58c12.85-10,15.2-20.61,15.2-20.61l-14.69-7A26,26,0,0,1,436.91,489.33Zm692.37-25.4-33.74-26.56-46.44,59,33.74,26.57,9.28-11.79-20.31-16,9.36-11.88,19.44,15.32,9.29-11.79-19.45-15.31,9.24-11.74,20.3,16ZM746.19,438.77c-5.33,9.9-15.87,38.52-25.42,108.74,14.23-.23,29-.37,44.24-.37q6.54,0,12.94,0c-9.46-69.33-19.88-98-25.24-108.14l-2.51-.11Zm412.72,119L1147.78,545l22-8,.12.13ZM912,464.52c42,24.8,79.29,63.26,109.69,100.48,35.76,6,60.37,12.42,75.89,17.23-34.35-35.3-76.59-69.63-124.52-95.59-14.78-6.48-29.9-12.19-45.23-17.21Q919.95,466.85,912,464.52ZM610,463C526.39,485.56,453.66,527.9,400.23,583.2c15.28-4.41,39.81-10.45,75.33-16.33C511.69,522.05,557.69,486.17,610,463ZM300.11,562.65l11.37-13.75,46.28,38.29L368.66,574l-46.28-38.29L333.75,522l-11.55-9.56-33.65,40.65Zm892.37-34.93-10.41-11.93-76.47,26.54,12.09,13.85,15-5.69L1151.44,572l-7.67,14,12.09,13.85ZM255.54,603.08l-20.41,38.3,66.24,35.3,8-15.09-26.58-14.17L294.26,626,281,618.92l-11.43,21.45-13.18-7,12.37-23.21ZM779.4,558.42q-7.11,0-14.39,0-23.71,0-45.7.4c-4.91,39.22-8.54,85.08-10.74,134.69q27.42-.39,57-.41c8.36,0,16.55,0,24.62.09C788,643.5,784.33,597.63,779.4,558.42Zm422.83,121.35,8,15.11,63.15-41.14-8.54-16.08-46.06,5.6,30.45-35-8.53-16.07-69.46,29.25,8,15.11,41-17.73.22.4-31.69,34.23,4.78,9,46.1-7.07.22.41ZM899.84,695.83c30.22,1.31,57.72,3,82.65,5C972,650,954.08,603.79,930.69,565.12c-19-1.69-39.65-3.16-62.11-4.28C882.66,599.44,893.4,645.2,899.84,695.83ZM629.73,562.07q-34,2-62.66,4.72c-23.08,38.63-40.7,84.62-51,135.27,25.07-2,52.59-3.81,82.77-5.26C605.15,646.33,615.78,600.66,629.73,562.07Zm451.59,149.58a368.9,368.9,0,0,0-67.65-136.3c-19.1-3.12-41.32-6.11-66.91-8.7,23.16,40,40,86,50,135.4C1029.49,704.92,1057.56,708.24,1081.32,711.65ZM551,568.38c-25.75,2.7-48.14,5.72-67.38,8.81a369.05,369.05,0,0,0-66.41,135.34c24-3.25,52.06-6.45,84.61-9.28C511.53,654.06,528.17,608.25,551,568.38ZM315.65,731.29c15.45-4,43.56-10.35,87-16.71a379.55,379.55,0,0,1,62.57-134.26c-54.52,9.82-78.23,19.28-78.71,19.47l-.57-.93A353.6,353.6,0,0,0,346.12,655,391.7,391.7,0,0,0,315.65,731.29Zm797-132.66-.72,1c-.44-.21-23.84-10.71-79.65-21.07a379.43,379.43,0,0,1,63.67,135.26c47.73,7.47,75.67,15,88.41,19C1171.74,683.74,1146.93,638.27,1112.63,598.63ZM706.84,453.23V287.88q21.52-1.53,43.36-1.53,21,0,41.61,1.39V453.12a77.65,77.65,0,0,0-17.29-12.76l-5.3-.38a119.54,119.54,0,0,1,6.33,16.13c6.05,18.81,11.48,56.1,16.12,90.18.05.33.09.68.13,1h0v193q-.46-18.21-1.16-35.91c-8.23-.06-16.58-.09-25.1-.09q-29.85,0-57.46.43-.76,19.62-1.25,39.89V547.77h0c.07-.49.13-1,.2-1.48,4.64-34.08,10.06-71.37,16.12-90.18a112.25,112.25,0,0,1,7.11-17.66h-2C721.07,441.45,713.88,446.51,706.84,453.23Zm485.85,379c.7-8.27,1.08-16.6,1.08-25a298.8,298.8,0,0,0-6.59-62.3l-.49.84c-.52-.2-26.5-9.86-88-19.81a390.23,390.23,0,0,1,8.54,81.27c0,8.41-.29,16.74-.82,25Zm-100,0q.81-12.4.83-25a380.35,380.35,0,0,0-9.23-83.5c-23.73-3.53-52-7-85.35-10a540.53,540.53,0,0,1,8.06,93.52q0,12.57-.58,25Zm-100,0q.57-12.4.59-25a529.66,529.66,0,0,0-8.46-94.75c-25.13-2.08-52.93-3.89-83.55-5.28a894.49,894.49,0,0,1,5.49,100q0,12.63-.34,25Zm-400.19,0q-.33-12.39-.34-25a894.46,894.46,0,0,1,5.38-99c-30.55,1.51-58.39,3.39-83.66,5.49a528.76,528.76,0,0,0-8.25,93.53q0,12.62.59,25Zm-100,0q-.56-12.43-.57-25a540.94,540.94,0,0,1,7.84-92.31c-33,3-61.35,6.3-85.33,9.65a380.28,380.28,0,0,0-9,82.66c0,8.41.3,16.74.84,25Zm-100,0c-.52-8.27-.81-16.6-.81-25a389.17,389.17,0,0,1,8.4-80.58c-48.27,7.27-76.29,14.28-87.67,17.45q-1.67,6.75-3.11,13.59A297.86,297.86,0,0,0,305,807.22c0,8.41.38,16.74,1.07,25ZM15.53,857.71V1012.3H1486.47V857.71ZM0,1034.6V526.26H148.05v306h0q2.79-28.74,8.22-56.63c47.08-242.62,239.33-433.69,482.55-479v157.1c-56,21.68-105.48,65.06-144.36,110.23,18.65-2.74,39.86-5.37,63.77-7.71q3.81-6.12,7.82-12c21.4-31.42,46-63.65,72.77-84.58v18.34c-24,21.1-45.65,48.33-64.24,76.76q27.5-2.4,59.48-4.19,2.32-5.89,4.76-11.8v39c-11.72,35.46-20.5,75.54-26.05,118.44q12.72-.55,26.05-1v11.28q-14.05.49-27.44,1.1a875.87,875.87,0,0,0-5.58,99.68q0,12.59.35,25h46.95V117.11l39.43,80.24V832.23H806.08V197.35l39.64-80.24V832.23h46.85q.34-12.43.35-25a877.94,877.94,0,0,0-5.69-100.63q-13.28-.52-27.23-1V694.38q13.21.39,25.83.87c-5.54-42.43-14.25-82.07-25.83-117.2V539c1.42,3.44,2.82,6.9,4.2,10.35,21.14,1,40.72,2.25,58.87,3.74-18.32-27.68-39.6-54.25-63.07-75V459.68c26.72,20.92,51.29,53.11,72.66,84.5,2.3,3.38,4.54,6.83,6.74,10.31,23.69,2.21,44.68,4.78,63.16,7.5C964,517.79,915.1,475.16,860,453.73V296.2c263.56,47.88,467.92,265.19,493,536h.93v-306h148V1034.6Z"/></g></g></svg>