<svg xmlns="http://www.w3.org/2000/svg" viewBox="0 0 1502 1032.63"><defs><style>.cls-1,.cls-2{fill:#fff;}.cls-2,.cls-4{fill-rule:evenodd;}.cls-3,.cls-4{fill:#034c8c;}</style></defs><g id="Camada_2" data-name="Camada 2"><g id="Camada_1-2" data-name="Camada 1"><path class="cls-1" d="M778,547.19q-6.41,0-12.94,0c-15.29,0-30,.13-44.24.37,12.34-90.78,26.36-112,28.61-113.2C751.63,435.48,765.61,456.72,778,547.19Zm13.72-.89c-4.64-34.08-10.07-71.37-16.12-90.18a110.06,110.06,0,0,0-7.62-18.62c30,10.47,58.88,56.35,81.29,111.19v0q-27.09-1-57.42-1.4C791.76,547,791.72,546.63,791.67,546.3Zm-84.78,1.48q-30.51.68-57.77,2l.42-1.07C672,493.85,700.82,448,730.83,437.5a110.06,110.06,0,0,0-7.62,18.62c-6.06,18.81-11.48,56.1-16.12,90.18C707,546.79,707,547.29,706.89,547.78Zm157.31,1.56c-17.39-43.77-39.29-87.75-64.11-107.2,47.57,15,90,61.2,123,110.94C904.92,551.59,885.34,550.32,864.2,549.34Zm-230.1,1.18q-32,1.76-59.48,4.19c33.07-50.59,76-97.39,124-112.57C673.62,461.77,651.56,506.18,634.1,550.52Zm305.3,4c-2.2-3.48-4.44-6.93-6.74-10.31-26.12-38.37-57-77.93-90.8-96.65C904.39,466,959.78,513,1002.56,562,984.08,559.27,963.09,556.71,939.4,554.5ZM566.09,544.19q-4,5.91-7.82,12c-23.91,2.33-45.12,5-63.77,7.7,43-50,99-97.73,162.4-116.38C623.11,466.26,592.22,505.82,566.09,544.19Zm531.48,38c-15.52-4.81-40.13-11.21-75.89-17.23-35.9-44-81.34-89.63-133-112.51C971.88,475,1044.23,527.42,1097.57,582.24ZM610,463c-52.35,23.2-98.35,59.07-134.48,103.9-35.52,5.88-60.05,11.92-75.33,16.33C453.66,527.9,526.39,485.57,610,463ZM779.4,558.42c4.93,39.22,8.57,85.09,10.77,134.73-8.07,0-16.26-.09-24.62-.09q-29.59,0-57,.41c2.2-49.62,5.83-95.48,10.74-134.7q22-.37,45.7-.39Q772.3,558.38,779.4,558.42ZM804,693.28c-2.18-49.58-5.8-95.4-10.7-134.73q32.06.41,60.44,1.61c14.75,39.33,25.62,85.3,32.13,135.1Q847.73,693.79,804,693.28Zm-191.15,2.9c6.43-49.69,17.19-95.59,31.83-134.91q28.59-1.44,60.79-2.22c-4.88,39.33-8.48,85.13-10.65,134.65Q651,694.5,612.81,696.18Zm287-.35c-6.44-50.62-17.18-96.38-31.26-135q33.69,1.68,62.11,4.28C954.08,603.8,972,650,982.49,700.87,957.56,698.88,930.06,697.15,899.84,695.83ZM629.73,562.07c-14,38.6-24.58,84.27-30.93,134.74-30.18,1.45-57.7,3.24-82.77,5.26,10.34-50.65,28-96.64,51-135.27Q595.8,564.1,629.73,562.07Zm451.59,149.59c-23.76-3.41-51.83-6.73-84.61-9.6-9.9-49.45-26.79-95.45-50-135.4,25.59,2.58,47.81,5.58,66.91,8.69A368.94,368.94,0,0,1,1081.32,711.66ZM551,568.39c-22.83,39.87-39.47,85.68-49.18,134.87-32.55,2.83-60.64,6-84.61,9.27A369.09,369.09,0,0,1,483.62,577.2C502.86,574.11,525.25,571.09,551,568.39ZM386.51,599.8c.48-.2,24.19-9.65,78.71-19.47a379.55,379.55,0,0,0-62.57,134.26c-44.28,6.48-72.62,12.93-87.88,16.94C327.45,683,352,638.09,385.94,598.87Zm726.12-1.16c34.3,39.64,59.11,85.11,71.71,134.2-12.74-4-40.68-11.52-88.41-19a379.43,379.43,0,0,0-63.67-135.26c55.81,10.36,79.21,20.86,79.65,21.07Zm-320,208.59c0,8.39,0,16.71-.13,25H706.25q-.12-12.43-.13-25c0-35.13.67-69.58,2-102.52q27.64-.4,57.46-.42c8.52,0,16.87,0,25.1.09C792,737.42,792.64,772,792.64,807.23Zm13.64,25q.12-12.43.12-25c0-35.25-.68-69.75-2-102.72q44.34.51,82.8,2.09a877.94,877.94,0,0,1,5.69,100.63q0,12.6-.35,25Zm-200.44-25a875.87,875.87,0,0,1,5.58-99.68q38.64-1.72,82.89-2.6c-1.28,32.84-1.95,67.18-1.95,102.28q0,12.59.12,25l-86.29,0Q605.85,819.85,605.84,807.23Zm387.36,0q0,12.69-.59,25.17c-26,0-54.71-.08-86.28-.11q.34-12.4.35-25.06a894.49,894.49,0,0,0-5.49-100c30.62,1.39,58.42,3.2,83.55,5.28A529.66,529.66,0,0,1,993.2,807.23Zm-395.74-99a894.32,894.32,0,0,0-5.38,99q0,12.66.34,25.09-47.45,0-86.27.11c-.38-8.33-.6-16.73-.6-25.2a528.76,528.76,0,0,1,8.25-93.53C539.07,711.6,566.91,709.72,597.46,708.21Zm496,99c0,8.54-.3,17-.85,25.39-24.18-.07-52.83-.14-86.26-.19q.57-12.52.59-25.2a540.44,540.44,0,0,0-8.06-93.52c33.32,3,61.62,6.49,85.35,10A380.5,380.5,0,0,1,1093.48,807.23Zm-688.21,0a380.44,380.44,0,0,1,9-82.67c24-3.34,52.31-6.67,85.33-9.64a540.85,540.85,0,0,0-7.84,92.31q0,12.69.58,25.22c-33.6.06-62.22.13-86.25.2C405.58,824.25,405.27,815.78,405.27,807.23ZM1192.63,833c-11.77-.07-39.46-.21-86.23-.35.54-8.41.84-16.88.84-25.43A390.23,390.23,0,0,0,1098.7,726c61.49,9.95,87.47,19.61,88,19.81l.49-.84a298.8,298.8,0,0,1,6.59,62.3C1193.77,815.9,1193.36,824.49,1192.63,833ZM305,807.23a298.5,298.5,0,0,1,6.73-63c11-3.1,39.16-10.22,88.2-17.6a389.17,389.17,0,0,0-8.4,80.58c0,8.56.3,17,.84,25.46-51,.15-78.19.3-86.23.34C305.39,824.51,305,815.91,305,807.23Zm-16.48,38.91h922.92c1.42-11.93,1.55-26.69,1.55-38.91C1213,601.14,1002,423,749.38,423S288.51,601.14,288.51,807.23C288.51,819.45,287.1,834.22,288.51,846.14Z"/><rect class="cls-1" y="526.27" width="148.05" height="319.88"/><rect class="cls-1" x="1353.95" y="526.27" width="148.05" height="319.88"/><path class="cls-2" d="M146.9,846.14a605.86,605.86,0,0,1,9.41-70.54C210.37,497,455.89,286.36,750.2,286.36c318.7,0,580.62,244.29,603.75,557.1H1200.8c0-255.58-184.73-392.94-450.6-404.52-251-10.94-450.15,162.34-450.15,407.2Z"/><polygon class="cls-3" points="254.8 597.95 234.62 636.36 301.07 671.28 309.02 656.14 282.36 642.13 293.66 620.62 280.38 613.65 269.07 635.15 255.85 628.21 268.09 604.93 254.8 597.95"/><polygon class="cls-3" points="298.95 557.43 310.22 543.6 356.79 581.52 367.58 568.26 321.01 530.34 332.27 516.51 320.64 507.04 287.32 547.96 298.95 557.43"/><path class="cls-3" d="M435,483c-13.47,10.7-26.86,6-33.14-1.93s-7.78-21.95,5.69-32.64A26,26,0,0,1,422,442.94L418.68,427s-10.85-.21-23.61,9.92c-16.68,13.24-21,39-7.59,55.85s39.34,18.26,55.95,5.08c12.76-10.12,15-20.74,15-20.74l-14.75-6.88A26.08,26.08,0,0,1,435,483Z"/><polygon class="cls-3" points="1001.65 390.14 1017.3 398.71 988.44 451.38 1003.43 459.59 1032.29 406.92 1047.93 415.49 1055.14 402.34 1008.86 376.98 1001.65 390.14"/><polygon class="cls-3" points="1126.95 454.43 1093.18 427.9 1046.81 486.94 1080.59 513.46 1089.85 501.66 1069.53 485.7 1078.86 473.81 1098.33 489.1 1107.6 477.3 1088.13 462.01 1097.35 450.26 1117.68 466.23 1126.95 454.43"/><path class="cls-3" d="M1156.64,548.06l-11.16-12.72,21.94-8.11.12.14Zm33.5-30.12L1179.7,506l-76.41,26.74,12.12,13.81,14.95-5.73,18.84,21.48-7.62,14.07,12.12,13.82Z"/><polygon class="cls-3" points="1200.49 670.01 1208.58 685.08 1271.53 643.63 1262.92 627.6 1216.89 633.42 1247.17 598.26 1238.56 582.23 1169.24 611.81 1177.33 626.88 1218.21 608.96 1218.43 609.36 1186.9 643.74 1191.72 652.72 1237.8 645.43 1238.01 645.83 1200.49 670.01"/><polygon class="cls-2" points="750.43 0 763 38.7 803.68 38.7 770.77 62.61 783.34 101.3 750.43 77.39 717.52 101.3 730.09 62.61 697.17 38.7 737.86 38.7 750.43 0"/><path class="cls-2" d="M845.72,834.25H806.08V197.36l39.64-80.24Zm-153.15,0H653.14V117.12l39.43,80.24Z"/><path class="cls-4" d="M845.72,834.25H806.08V197.36l39.64-80.24Zm-153.15,0H653.14V117.12l39.43,80.24Zm153.15,14.27A14.28,14.28,0,0,0,860,834.25V117.12a14.28,14.28,0,0,0-27.08-6.33L793.28,191a14.3,14.3,0,0,0-1.47,6.32V834.25a14.27,14.27,0,0,0,14.27,14.27Zm-153.15,0a14.27,14.27,0,0,0,14.27-14.27V197.36a14.3,14.3,0,0,0-1.46-6.29L666,110.82a14.28,14.28,0,0,0-27.09,6.3V834.25a14.27,14.27,0,0,0,14.28,14.27Z"/><rect class="cls-1" y="830.25" width="1502" height="202.38"/><path class="cls-3" d="M328.75,871.17H299.93v83.45c0,12.73-6.29,17.8-14.57,17.8-7.37,0-16.42-8.6-16.42-8.6l-9.2,24.08s11.5,12.11,29.61,12.11c25.3,0,39.4-13.18,39.4-38Z"/><path class="cls-3" d="M504.24,871.17H475.42v73.17c0,21.17-6.44,27.31-20.56,27.31s-20.57-6.14-20.57-27.31V871.17H405.47v81.61c0,31.29,17.17,47.23,49.39,47.23s49.38-15.94,49.38-47.23Z"/><path class="cls-3" d="M626.05,868.87c-20.4,0-41.25,15-41.25,38.64,0,13.2,8.89,25,24.07,32.53s28.55,11.66,28.55,20.87c0,11.81-12,12.43-18.27,12.43-14.12,0-31-14.27-31-14.27L573.75,983.3s18,16.71,47.55,16.71c24.7,0,47.7-10.58,47.7-40.79,0-16.57-15.49-28.54-29.59-34.52C625,918.56,613,913.49,613,906.44s5.21-11.36,15-11.36c13,0,25.62,8.75,25.62,8.75l11.65-23A71.93,71.93,0,0,0,626.05,868.87Z"/><polygon class="cls-3" points="728.54 896.46 758.6 896.46 758.6 997.71 787.42 997.71 787.42 896.46 817.49 896.46 817.49 871.17 728.54 871.17 728.54 896.46"/><rect class="cls-3" x="889.3" y="871.17" width="28.82" height="126.54"/><path class="cls-3" d="M1060.33,971.65c-29,0-41.73-20.26-41.73-37.29s12.73-37.13,41.73-37.13a44,44,0,0,1,24.85,7.82l12.27-24.52s-14.11-11.66-41.57-11.66c-35.9,0-68.55,29.43-68.55,65.8,0,36.21,32.8,65.34,68.55,65.34,27.46,0,41.57-11.65,41.57-11.65l-12.27-24.54A43.94,43.94,0,0,1,1060.33,971.65Z"/><polygon class="cls-3" points="1242.26 871.17 1169.87 871.17 1169.87 997.71 1242.26 997.71 1242.26 972.42 1198.69 972.42 1198.69 946.93 1240.42 946.93 1240.42 921.64 1198.69 921.64 1198.69 896.46 1242.26 896.46 1242.26 871.17"/><polygon class="cls-4" points="127.28 875.84 139.85 914.53 180.53 914.53 147.62 938.44 160.19 977.13 127.28 953.22 94.36 977.13 106.94 938.44 74.02 914.53 114.71 914.53 127.28 875.84"/><polygon class="cls-4" points="1374.72 883.79 1387.29 922.48 1427.98 922.48 1395.06 946.4 1407.64 985.09 1374.72 961.17 1341.81 985.09 1354.38 946.4 1321.47 922.48 1362.15 922.48 1374.72 883.79"/></g></g></svg>